<?xml version="1.0" encoding="utf-8"?>
<!-- Generator: Adobe Illustrator 24.2.3, SVG Export Plug-In . SVG Version: 6.00 Build 0)  -->
<svg version="1.1" id="Layer_1" xmlns="http://www.w3.org/2000/svg" xmlns:xlink="http://www.w3.org/1999/xlink" x="0px" y="0px"
	 viewBox="0 0 200 200" style="enable-background:new 0 0 200 200;" xml:space="preserve">
<polygon points="86.7,100.1 66.7,100.1 45,53.7 65,53.7 "/>
<polygon points="133.3,200.1 113.3,200.1 66.7,100.1 86.7,100.1 "/>
<polygon points="200,200.1 180,200.1 133.3,100.1 153.3,100.1 "/>
<g>
	<path d="M40,0H0v15h37.6l0.5,0c10.7-0.4,30.6,2,38.6,10.1c2.2,2.3,3.2,4.7,3.2,8.2c0,3.5-1,5.9-3.2,8.2c-8,8.2-27.9,10.5-38.6,10.1
		L0,51.6v15h40c0,0,59.9,2.4,60-33.3C99.9-2.4,40,0,40,0z"/>
	<path d="M100,33.3C100,33.3,100,33.3,100,33.3c0,0.1,0,0.1,0,0.1V33.3z"/>
</g>
<rect width="20" height="100"/>
<polygon points="66.7,200 46.7,200 0,100 20,100 "/>
</svg>
